<svg id="visual" viewBox="0 0 900 600" width="900" height="600" xmlns="http://www.w3.org/2000/svg" xmlns:xlink="http://www.w3.org/1999/xlink" version="1.1"><g stroke-width="1" stroke-linejoin="bevel"><path d="M409 294L330 333L370 404Z" fill="#8f0000" stroke="#8f0000"></path><path d="M370 404L460 387L409 294Z" fill="#b60c1c" stroke="#b60c1c"></path><path d="M330 333L285 395L370 404Z" fill="#670000" stroke="#670000"></path><path d="M325 509L419 473L370 404Z" fill="#670000" stroke="#670000"></path><path d="M370 404L419 473L460 387Z" fill="#a40011" stroke="#a40011"></path><path d="M483 239L382 204L409 294Z" fill="#8f0000" stroke="#8f0000"></path><path d="M409 294L382 204L330 333Z" fill="#ec2940" stroke="#ec2940"></path><path d="M330 333L205 370L285 395Z" fill="#c81728" stroke="#c81728"></path><path d="M532 314L483 239L409 294Z" fill="#ff324d" stroke="#ff324d"></path><path d="M611 379L532 314L460 387Z" fill="#7b0000" stroke="#7b0000"></path><path d="M460 387L532 314L409 294Z" fill="#c81728" stroke="#c81728"></path><path d="M382 204L280 225L330 333Z" fill="#a40011" stroke="#a40011"></path><path d="M285 395L325 509L370 404Z" fill="#da2034" stroke="#da2034"></path><path d="M192 319L205 370L330 333Z" fill="#670000" stroke="#670000"></path><path d="M285 395L197 519L325 509Z" fill="#da2034" stroke="#da2034"></path><path d="M280 225L192 319L330 333Z" fill="#ff324d" stroke="#ff324d"></path><path d="M532 314L581 279L483 239Z" fill="#670000" stroke="#670000"></path><path d="M611 379L581 279L532 314Z" fill="#ec2940" stroke="#ec2940"></path><path d="M427 600L517 514L419 473Z" fill="#560000" stroke="#560000"></path><path d="M419 473L517 514L460 387Z" fill="#8f0000" stroke="#8f0000"></path><path d="M310 97L233 199L280 225Z" fill="#7b0000" stroke="#7b0000"></path><path d="M280 225L233 199L192 319Z" fill="#ec2940" stroke="#ec2940"></path><path d="M517 514L611 379L460 387Z" fill="#b60c1c" stroke="#b60c1c"></path><path d="M483 239L483 130L382 204Z" fill="#a40011" stroke="#a40011"></path><path d="M382 204L310 97L280 225Z" fill="#b60c1c" stroke="#b60c1c"></path><path d="M589 170L483 130L483 239Z" fill="#c81728" stroke="#c81728"></path><path d="M483 130L425 102L382 204Z" fill="#b60c1c" stroke="#b60c1c"></path><path d="M205 370L197 519L285 395Z" fill="#ec2940" stroke="#ec2940"></path><path d="M325 509L427 600L419 473Z" fill="#7b0000" stroke="#7b0000"></path><path d="M128 370L197 519L205 370Z" fill="#da2034" stroke="#da2034"></path><path d="M306 600L427 600L325 509Z" fill="#000000" stroke="#000000"></path><path d="M130 208L128 339L192 319Z" fill="#560000" stroke="#560000"></path><path d="M192 319L128 339L205 370Z" fill="#a40011" stroke="#a40011"></path><path d="M128 339L128 370L205 370Z" fill="#c81728" stroke="#c81728"></path><path d="M425 102L310 97L382 204Z" fill="#ec2940" stroke="#ec2940"></path><path d="M197 519L306 600L325 509Z" fill="#ff324d" stroke="#ff324d"></path><path d="M595 600L610 494L517 514Z" fill="#560000" stroke="#560000"></path><path d="M517 514L610 494L611 379Z" fill="#560000" stroke="#560000"></path><path d="M669 214L589 170L581 279Z" fill="#670000" stroke="#670000"></path><path d="M581 279L589 170L483 239Z" fill="#ff324d" stroke="#ff324d"></path><path d="M493 0L405 0L425 102Z" fill="#000000" stroke="#000000"></path><path d="M427 600L505 600L517 514Z" fill="#ec2940" stroke="#ec2940"></path><path d="M233 199L130 208L192 319Z" fill="#ec2940" stroke="#ec2940"></path><path d="M193 126L130 208L233 199Z" fill="#8f0000" stroke="#8f0000"></path><path d="M310 97L193 126L233 199Z" fill="#b60c1c" stroke="#b60c1c"></path><path d="M724 329L669 214L581 279Z" fill="#ff324d" stroke="#ff324d"></path><path d="M724 329L581 279L611 379Z" fill="#7b0000" stroke="#7b0000"></path><path d="M505 600L595 600L517 514Z" fill="#7b0000" stroke="#7b0000"></path><path d="M732 422L724 329L611 379Z" fill="#000000" stroke="#000000"></path><path d="M112 600L177 600L197 519Z" fill="#8f0000" stroke="#8f0000"></path><path d="M197 519L177 600L306 600Z" fill="#ff324d" stroke="#ff324d"></path><path d="M669 214L620 111L589 170Z" fill="#7b0000" stroke="#7b0000"></path><path d="M589 170L620 111L483 130Z" fill="#da2034" stroke="#da2034"></path><path d="M732 422L611 379L610 494Z" fill="#ec2940" stroke="#ec2940"></path><path d="M669 214L718 111L620 111Z" fill="#ec2940" stroke="#ec2940"></path><path d="M0 401L65 460L128 370Z" fill="#c81728" stroke="#c81728"></path><path d="M128 370L65 460L197 519Z" fill="#670000" stroke="#670000"></path><path d="M0 332L128 370L128 339Z" fill="#a40011" stroke="#a40011"></path><path d="M595 600L688 513L610 494Z" fill="#ff324d" stroke="#ff324d"></path><path d="M493 0L425 102L483 130Z" fill="#b60c1c" stroke="#b60c1c"></path><path d="M425 102L405 0L310 97Z" fill="#670000" stroke="#670000"></path><path d="M310 97L210 0L193 126Z" fill="#c81728" stroke="#c81728"></path><path d="M688 513L732 422L610 494Z" fill="#000000" stroke="#000000"></path><path d="M405 0L312 0L310 97Z" fill="#8f0000" stroke="#8f0000"></path><path d="M570 0L493 0L483 130Z" fill="#da2034" stroke="#da2034"></path><path d="M65 460L112 600L197 519Z" fill="#000000" stroke="#000000"></path><path d="M0 162L0 332L130 208Z" fill="#a40011" stroke="#a40011"></path><path d="M130 208L0 332L128 339Z" fill="#da2034" stroke="#da2034"></path><path d="M65 460L0 600L112 600Z" fill="#c81728" stroke="#c81728"></path><path d="M0 332L0 401L128 370Z" fill="#c81728" stroke="#c81728"></path><path d="M312 0L210 0L310 97Z" fill="#8f0000" stroke="#8f0000"></path><path d="M193 126L69 76L130 208Z" fill="#000000" stroke="#000000"></path><path d="M732 422L778 323L724 329Z" fill="#ff324d" stroke="#ff324d"></path><path d="M724 329L778 323L669 214Z" fill="#c81728" stroke="#c81728"></path><path d="M700 0L570 0L620 111Z" fill="#da2034" stroke="#da2034"></path><path d="M620 111L570 0L483 130Z" fill="#c81728" stroke="#c81728"></path><path d="M0 401L0 467L65 460Z" fill="#560000" stroke="#560000"></path><path d="M794 167L718 111L669 214Z" fill="#b60c1c" stroke="#b60c1c"></path><path d="M595 600L711 600L688 513Z" fill="#8f0000" stroke="#8f0000"></path><path d="M688 513L814 492L732 422Z" fill="#da2034" stroke="#da2034"></path><path d="M732 422L830 364L778 323Z" fill="#c81728" stroke="#c81728"></path><path d="M210 0L69 76L193 126Z" fill="#ff324d" stroke="#ff324d"></path><path d="M69 76L0 162L130 208Z" fill="#ec2940" stroke="#ec2940"></path><path d="M69 76L0 133L0 162Z" fill="#7b0000" stroke="#7b0000"></path><path d="M814 492L830 364L732 422Z" fill="#c81728" stroke="#c81728"></path><path d="M778 323L794 167L669 214Z" fill="#a40011" stroke="#a40011"></path><path d="M900 223L794 167L778 323Z" fill="#b60c1c" stroke="#b60c1c"></path><path d="M718 111L700 0L620 111Z" fill="#670000" stroke="#670000"></path><path d="M761 600L814 492L688 513Z" fill="#a40011" stroke="#a40011"></path><path d="M711 600L761 600L688 513Z" fill="#000000" stroke="#000000"></path><path d="M0 467L0 600L65 460Z" fill="#b60c1c" stroke="#b60c1c"></path><path d="M210 0L75 0L69 76Z" fill="#ff324d" stroke="#ff324d"></path><path d="M69 76L0 0L0 133Z" fill="#670000" stroke="#670000"></path><path d="M778 0L700 0L718 111Z" fill="#c81728" stroke="#c81728"></path><path d="M900 462L900 384L830 364Z" fill="#ff324d" stroke="#ff324d"></path><path d="M830 364L900 301L778 323Z" fill="#a40011" stroke="#a40011"></path><path d="M900 462L830 364L814 492Z" fill="#8f0000" stroke="#8f0000"></path><path d="M900 384L900 301L830 364Z" fill="#c81728" stroke="#c81728"></path><path d="M794 167L823 70L718 111Z" fill="#a40011" stroke="#a40011"></path><path d="M900 97L823 70L794 167Z" fill="#ff324d" stroke="#ff324d"></path><path d="M75 0L0 0L69 76Z" fill="#7b0000" stroke="#7b0000"></path><path d="M823 70L778 0L718 111Z" fill="#b60c1c" stroke="#b60c1c"></path><path d="M900 600L900 462L814 492Z" fill="#c81728" stroke="#c81728"></path><path d="M900 301L900 223L778 323Z" fill="#7b0000" stroke="#7b0000"></path><path d="M900 223L900 97L794 167Z" fill="#7b0000" stroke="#7b0000"></path><path d="M823 70L900 0L778 0Z" fill="#7b0000" stroke="#7b0000"></path><path d="M761 600L900 600L814 492Z" fill="#560000" stroke="#560000"></path><path d="M900 97L900 0L823 70Z" fill="#ff324d" stroke="#ff324d"></path></g></svg>