# Blender v3.2.2 OBJ File: ''
# www.blender.org
mtllib x.mtl
o Cube
v 1.000000 1.000000 -1.000000
v 1.000000 -1.000000 -1.000000
v 1.000000 1.000000 1.000000
v 1.000000 -1.000000 1.000000
v -1.000000 1.000000 -1.000000
v -1.000000 -1.000000 -1.000000
v -1.000000 1.000000 1.000000
v -1.000000 -1.000000 1.000000
vt 0.625000 0.500000
vt 0.875000 0.500000
vt 0.875000 0.750000
vt 0.625000 0.750000
vt 0.375000 0.750000
vt 0.625000 1.000000
vt 0.375000 1.000000
vt 0.375000 0.000000
vt 0.625000 0.000000
vt 0.625000 0.250000
vt 0.375000 0.250000
vt 0.125000 0.500000
vt 0.375000 0.500000
vt 0.125000 0.750000
vn 0.0000 1.0000 0.0000
vn 0.0000 0.0000 1.0000
vn -1.0000 0.0000 0.0000
vn 0.0000 -1.0000 0.0000
vn 1.0000 0.0000 0.0000
vn 0.0000 0.0000 -1.0000
usemtl Material
s off
f 1/1/1 5/2/1 7/3/1 3/4/1
f 4/5/2 3/4/2 7/6/2 8/7/2
f 8/8/3 7/9/3 5/10/3 6/11/3
f 6/12/4 2/13/4 4/5/4 8/14/4
f 2/13/5 1/1/5 3/4/5 4/5/5
f 6/11/6 5/10/6 1/1/6 2/13/6
o Cylinder.001
v 0.007183 0.002038 -0.010596
v -0.348271 0.002038 -0.010596
v -0.348271 0.004105 -0.010393
v 0.007183 0.004105 -0.010393
v -0.348271 0.006093 -0.009790
v 0.007183 0.006093 -0.009790
v -0.348271 0.007925 -0.008810
v 0.007183 0.007925 -0.008810
v -0.348271 0.009531 -0.007493
v 0.007183 0.009531 -0.007493
v -0.348271 0.010849 -0.005887
v 0.007183 0.010848 -0.005887
v -0.348271 0.011828 -0.004055
v 0.007183 0.011828 -0.004055
v -0.348271 0.012431 -0.002067
v 0.007183 0.012431 -0.002067
v -0.348271 0.012634 0.000000
v 0.007183 0.012634 0.000000
v -0.348271 0.012431 0.002067
v 0.007183 0.012431 0.002067
v -0.348271 0.011828 0.004055
v 0.007183 0.011828 0.004055
v -0.348271 0.010849 0.005887
v 0.007183 0.010848 0.005887
v -0.348271 0.009531 0.007493
v 0.007183 0.009531 0.007493
v -0.348271 0.007925 0.008810
v 0.007183 0.007925 0.008810
v -0.348271 0.006093 0.009790
v 0.007183 0.006093 0.009790
v -0.348271 0.004105 0.010393
v 0.007183 0.004105 0.010393
v -0.348271 0.002038 0.010596
v 0.007183 0.002038 0.010596
v -0.348271 -0.000029 0.010393
v 0.007183 -0.000029 0.010393
v -0.348271 -0.002017 0.009790
v 0.007183 -0.002017 0.009790
v -0.348271 -0.003849 0.008810
v 0.007183 -0.003849 0.008810
v -0.348271 -0.005455 0.007493
v 0.007183 -0.005455 0.007493
v -0.348271 -0.006772 0.005887
v 0.007183 -0.006772 0.005887
v -0.348271 -0.007752 0.004055
v 0.007183 -0.007752 0.004055
v -0.348271 -0.008355 0.002067
v 0.007183 -0.008355 0.002067
v -0.348271 -0.008558 -0.000000
v 0.007183 -0.008558 -0.000000
v -0.348271 -0.008355 -0.002067
v 0.007183 -0.008355 -0.002067
v -0.348271 -0.007752 -0.004055
v 0.007183 -0.007752 -0.004055
v -0.348271 -0.006772 -0.005887
v 0.007183 -0.006772 -0.005887
v -0.348271 -0.005455 -0.007493
v 0.007183 -0.005455 -0.007493
v -0.348271 -0.003849 -0.008810
v 0.007183 -0.003849 -0.008810
v -0.348271 -0.002017 -0.009790
v 0.007183 -0.002017 -0.009790
v -0.348271 -0.000029 -0.010393
v 0.007183 -0.000029 -0.010393
vt 1.000000 0.500000
vt 1.000000 1.000000
vt 0.968750 1.000000
vt 0.968750 0.500000
vt 0.937500 1.000000
vt 0.937500 0.500000
vt 0.906250 1.000000
vt 0.906250 0.500000
vt 0.875000 1.000000
vt 0.875000 0.500000
vt 0.843750 1.000000
vt 0.843750 0.500000
vt 0.812500 1.000000
vt 0.812500 0.500000
vt 0.781250 1.000000
vt 0.781250 0.500000
vt 0.750000 1.000000
vt 0.750000 0.500000
vt 0.718750 1.000000
vt 0.718750 0.500000
vt 0.687500 1.000000
vt 0.687500 0.500000
vt 0.656250 1.000000
vt 0.656250 0.500000
vt 0.625000 1.000000
vt 0.625000 0.500000
vt 0.593750 1.000000
vt 0.593750 0.500000
vt 0.562500 1.000000
vt 0.562500 0.500000
vt 0.531250 1.000000
vt 0.531250 0.500000
vt 0.500000 1.000000
vt 0.500000 0.500000
vt 0.468750 1.000000
vt 0.468750 0.500000
vt 0.437500 1.000000
vt 0.437500 0.500000
vt 0.406250 1.000000
vt 0.406250 0.500000
vt 0.375000 1.000000
vt 0.375000 0.500000
vt 0.343750 1.000000
vt 0.343750 0.500000
vt 0.312500 1.000000
vt 0.312500 0.500000
vt 0.281250 1.000000
vt 0.281250 0.500000
vt 0.250000 1.000000
vt 0.250000 0.500000
vt 0.218750 1.000000
vt 0.218750 0.500000
vt 0.187500 1.000000
vt 0.187500 0.500000
vt 0.156250 1.000000
vt 0.156250 0.500000
vt 0.125000 1.000000
vt 0.125000 0.500000
vt 0.093750 1.000000
vt 0.093750 0.500000
vt 0.062500 1.000000
vt 0.062500 0.500000
vt 0.296822 0.485388
vt 0.250000 0.490000
vt 0.203178 0.485388
vt 0.158156 0.471731
vt 0.116663 0.449553
vt 0.080294 0.419706
vt 0.050447 0.383337
vt 0.028269 0.341844
vt 0.014612 0.296822
vt 0.010000 0.250000
vt 0.014612 0.203178
vt 0.028269 0.158156
vt 0.050447 0.116663
vt 0.080294 0.080294
vt 0.116663 0.050447
vt 0.158156 0.028269
vt 0.203178 0.014612
vt 0.250000 0.010000
vt 0.296822 0.014612
vt 0.341844 0.028269
vt 0.383337 0.050447
vt 0.419706 0.080294
vt 0.449553 0.116663
vt 0.471731 0.158156
vt 0.485388 0.203178
vt 0.490000 0.250000
vt 0.485388 0.296822
vt 0.471731 0.341844
vt 0.449553 0.383337
vt 0.419706 0.419706
vt 0.383337 0.449553
vt 0.341844 0.471731
vt 0.031250 1.000000
vt 0.031250 0.500000
vt 0.000000 1.000000
vt 0.000000 0.500000
vt 0.750000 0.490000
vt 0.796822 0.485388
vt 0.841844 0.471731
vt 0.883337 0.449553
vt 0.919706 0.419706
vt 0.949553 0.383337
vt 0.971731 0.341844
vt 0.985388 0.296822
vt 0.990000 0.250000
vt 0.985388 0.203178
vt 0.971731 0.158156
vt 0.949553 0.116663
vt 0.919706 0.080294
vt 0.883337 0.050447
vt 0.841844 0.028269
vt 0.796822 0.014612
vt 0.750000 0.010000
vt 0.703178 0.014612
vt 0.658156 0.028269
vt 0.616663 0.050447
vt 0.580294 0.080294
vt 0.550447 0.116663
vt 0.528269 0.158156
vt 0.514612 0.203178
vt 0.510000 0.250000
vt 0.514612 0.296822
vt 0.528269 0.341844
vt 0.550447 0.383337
vt 0.580294 0.419706
vt 0.616663 0.449553
vt 0.658156 0.471731
vt 0.703178 0.485388
vn 0.0000 0.0977 -0.9952
vn 0.0000 0.2903 -0.9569
vn -0.0000 0.4713 -0.8820
vn 0.0000 0.6345 -0.7729
vn 0.0000 0.7731 -0.6342
vn 0.0000 0.8819 -0.4715
vn 0.0000 0.9569 -0.2903
vn 0.0000 0.9952 -0.0977
vn 0.0000 0.9952 0.0977
vn 0.0000 0.9569 0.2903
vn 0.0000 0.8819 0.4715
vn 0.0000 0.7731 0.6342
vn -0.0000 0.6345 0.7729
vn 0.0000 0.4713 0.8820
vn 0.0000 0.2903 0.9569
vn 0.0000 0.0977 0.9952
vn 0.0000 -0.0977 0.9952
vn 0.0000 -0.2903 0.9569
vn 0.0000 -0.4717 0.8818
vn 0.0000 -0.6341 0.7732
vn 0.0000 -0.7732 0.6341
vn 0.0000 -0.8818 0.4717
vn 0.0000 -0.9569 0.2903
vn 0.0000 -0.9952 0.0977
vn 0.0000 -0.9952 -0.0977
vn 0.0000 -0.9569 -0.2903
vn 0.0000 -0.8818 -0.4717
vn 0.0000 -0.7732 -0.6341
vn 0.0000 -0.6341 -0.7732
vn 0.0000 -0.4717 -0.8818
vn -1.0000 0.0000 0.0000
vn 0.0000 -0.2903 -0.9569
vn 0.0000 -0.0977 -0.9952
vn 1.0000 0.0000 0.0000
usemtl None
s 1
f 9/15/7 10/16/7 11/17/7 12/18/7
f 12/18/8 11/17/8 13/19/8 14/20/8
f 14/20/9 13/19/9 15/21/9 16/22/9
f 16/22/10 15/21/10 17/23/10 18/24/10
f 18/24/11 17/23/11 19/25/11 20/26/11
f 20/26/12 19/25/12 21/27/12 22/28/12
f 22/28/13 21/27/13 23/29/13 24/30/13
f 24/30/14 23/29/14 25/31/14 26/32/14
f 26/32/15 25/31/15 27/33/15 28/34/15
f 28/34/16 27/33/16 29/35/16 30/36/16
f 30/36/17 29/35/17 31/37/17 32/38/17
f 32/38/18 31/37/18 33/39/18 34/40/18
f 34/40/19 33/39/19 35/41/19 36/42/19
f 36/42/20 35/41/20 37/43/20 38/44/20
f 38/44/21 37/43/21 39/45/21 40/46/21
f 40/46/22 39/45/22 41/47/22 42/48/22
f 42/48/23 41/47/23 43/49/23 44/50/23
f 44/50/24 43/49/24 45/51/24 46/52/24
f 46/52/25 45/51/25 47/53/25 48/54/25
f 48/54/26 47/53/26 49/55/26 50/56/26
f 50/56/27 49/55/27 51/57/27 52/58/27
f 52/58/28 51/57/28 53/59/28 54/60/28
f 54/60/29 53/59/29 55/61/29 56/62/29
f 56/62/30 55/61/30 57/63/30 58/64/30
f 58/64/31 57/63/31 59/65/31 60/66/31
f 60/66/32 59/65/32 61/67/32 62/68/32
f 62/68/33 61/67/33 63/69/33 64/70/33
f 64/70/34 63/69/34 65/71/34 66/72/34
f 66/72/35 65/71/35 67/73/35 68/74/35
f 68/74/36 67/73/36 69/75/36 70/76/36
f 11/77/37 10/78/37 71/79/37 69/80/37 67/81/37 65/82/37 63/83/37 61/84/37 59/85/37 57/86/37 55/87/37 53/88/37 51/89/37 49/90/37 47/91/37 45/92/37 43/93/37 41/94/37 39/95/37 37/96/37 35/97/37 33/98/37 31/99/37 29/100/37 27/101/37 25/102/37 23/103/37 21/104/37 19/105/37 17/106/37 15/107/37 13/108/37
f 70/76/38 69/75/38 71/109/38 72/110/38
f 72/110/39 71/109/39 10/111/39 9/112/39
f 9/113/40 12/114/40 14/115/40 16/116/40 18/117/40 20/118/40 22/119/40 24/120/40 26/121/40 28/122/40 30/123/40 32/124/40 34/125/40 36/126/40 38/127/40 40/128/40 42/129/40 44/130/40 46/131/40 48/132/40 50/133/40 52/134/40 54/135/40 56/136/40 58/137/40 60/138/40 62/139/40 64/140/40 66/141/40 68/142/40 70/143/40 72/144/40
o Cube.001_Cube.002
v -0.379200 -0.021464 0.021464
v -0.379200 0.021464 0.021464
v -0.379200 -0.021464 -0.021464
v -0.379200 0.021464 -0.021464
v -0.336272 -0.021464 0.021464
v -0.336272 0.021464 0.021464
v -0.336272 -0.021464 -0.021464
v -0.336272 0.021464 -0.021464
vt 0.375000 0.000000
vt 0.625000 0.000000
vt 0.625000 0.250000
vt 0.375000 0.250000
vt 0.625000 0.500000
vt 0.375000 0.500000
vt 0.625000 0.750000
vt 0.375000 0.750000
vt 0.625000 1.000000
vt 0.375000 1.000000
vt 0.125000 0.500000
vt 0.125000 0.750000
vt 0.875000 0.500000
vt 0.875000 0.750000
vn -1.0000 0.0000 0.0000
vn 0.0000 0.0000 -1.0000
vn 1.0000 0.0000 0.0000
vn 0.0000 0.0000 1.0000
vn 0.0000 -1.0000 0.0000
vn 0.0000 1.0000 0.0000
usemtl None
s off
f 73/145/41 74/146/41 76/147/41 75/148/41
f 75/148/42 76/147/42 80/149/42 79/150/42
f 79/150/43 80/149/43 78/151/43 77/152/43
f 77/152/44 78/151/44 74/153/44 73/154/44
f 75/155/45 79/150/45 77/152/45 73/156/45
f 80/149/46 76/157/46 74/158/46 78/151/46
