{
  "accessors": [
    {
      "bufferView": 3,
      "componentType": 5126,
      "count": 240,
      "max": [
        0.9169139862060547,
        6.443315505981445,
        -1.1308846473693848
      ],
      "min": [
        -0.9345895051956177,
        5.038570404052734,
        -1.6052011251449585
      ],
      "type": "VEC3"
    },
    {
      "bufferView": 3,
      "byteOffset": 2880,
      "componentType": 5126,
      "count": 240,
      "max": [
        0.41380271315574646,
        0.3412885069847107,
        -0.6549603939056396
      ],
      "min": [
        -0.4322144389152527,
        -0.7556625604629517,
        -0.9988043308258057
      ],
      "type": "VEC3"
    },
    {
      "bufferView": 2,
      "componentType": 5126,
      "count": 240,
      "max": [
        0.5819482207298279,
        0.659146249294281
      ],
      "min": [
        0.34906816482543945,
        0.5543086528778076
      ],
      "type": "VEC2"
    },
    {
      "bufferView": 1,
      "componentType": 5125,
      "count": 636,
      "type": "SCALAR"
    },
    {
      "bufferView": 3,
      "byteOffset": 5760,
      "componentType": 5126,
      "count": 4434,
      "max": [
        2.7114243507385254,
        8.118205070495605,
        3.4862895011901855
      ],
      "min": [
        -2.7114243507385254,
        -0.020025204867124557,
        -1.6012725830078125
      ],
      "type": "VEC3"
    },
    {
      "bufferView": 3,
      "byteOffset": 58968,
      "componentType": 5126,
      "count": 4434,
      "max": [
        1.0,
        1.0,
        1.0
      ],
      "min": [
        -1.0,
        -1.0,
        -1.0
      ],
      "type": "VEC3"
    },
    {
      "bufferView": 2,
      "byteOffset": 1920,
      "componentType": 5126,
      "count": 4434,
      "max": [
        0.8058128356933594,
        0.8210516571998596
      ],
      "min": [
        0.18498216569423676,
        0.058556027710437775
      ],
      "type": "VEC2"
    },
    {
      "bufferView": 1,
      "byteOffset": 2544,
      "componentType": 5125,
      "count": 25518,
      "type": "SCALAR"
    },
    {
      "bufferView": 3,
      "byteOffset": 112176,
      "componentType": 5126,
      "count": 4258,
      "max": [
        2.751272201538086,
        8.151710510253906,
        3.526289463043213
      ],
      "min": [
        -2.751272201538086,
        -0.060025203973054886,
        -1.6411974430084229
      ],
      "type": "VEC3"
    },
    {
      "bufferView": 3,
      "byteOffset": 163272,
      "componentType": 5126,
      "count": 4258,
      "max": [
        1.0,
        1.0,
        1.0
      ],
      "min": [
        -1.0,
        -1.0,
        -1.0
      ],
      "type": "VEC3"
    },
    {
      "bufferView": 2,
      "byteOffset": 37392,
      "componentType": 5126,
      "count": 4258,
      "max": [
        0.8058128356933594,
        0.8210516571998596
      ],
      "min": [
        0.18498216569423676,
        0.058556027710437775
      ],
      "type": "VEC2"
    },
    {
      "bufferView": 1,
      "byteOffset": 104616,
      "componentType": 5125,
      "count": 24498,
      "type": "SCALAR"
    },
    {
      "bufferView": 5,
      "componentType": 5126,
      "count": 27,
      "max": [
        1.0,
        0.9936428666114807,
        0.06903603672981262,
        0.0,
        0.9934585094451904,
        1.0,
        1.0,
        0.0,
        0.09961861371994019,
        1.0,
        1.0,
        0.0,
        4.0764312744140625,
        2.7478344440460205,
        2.7677857875823975,
        1.0
      ],
      "min": [
        -1.0,
        -0.9936428666114807,
        -0.06903603672981262,
        0.0,
        -0.9934585094451904,
        -0.998576819896698,
        -1.0,
        0.0,
        -0.09961861371994019,
        -1.0,
        -0.9999910593032837,
        0.0,
        -4.0764312744140625,
        -4.876658916473389,
        -2.4322922229766846,
        1.0
      ],
      "type": "MAT4"
    },
    {
      "bufferView": 0,
      "componentType": 5123,
      "count": 240,
      "type": "VEC4"
    },
    {
      "bufferView": 4,
      "componentType": 5126,
      "count": 240,
      "max": [
        1.0,
        0.0,
        0.0,
        0.0
      ],
      "min": [
        1.0,
        0.0,
        0.0,
        0.0
      ],
      "type": "VEC4"
    },
    {
      "bufferView": 0,
      "byteOffset": 1920,
      "componentType": 5123,
      "count": 4434,
      "type": "VEC4"
    },
    {
      "bufferView": 4,
      "byteOffset": 3840,
      "componentType": 5126,
      "count": 4434,
      "max": [
        1.0,
        0.5,
        0.3333333432674408,
        0.0
      ],
      "min": [
        0.3333333432674408,
        0.0,
        0.0,
        0.0
      ],
      "type": "VEC4"
    },
    {
      "bufferView": 0,
      "byteOffset": 37392,
      "componentType": 5123,
      "count": 4258,
      "type": "VEC4"
    },
    {
      "bufferView": 4,
      "byteOffset": 74784,
      "componentType": 5126,
      "count": 4258,
      "max": [
        1.0,
        0.5,
        0.3333333432674408,
        0.0
      ],
      "min": [
        0.3333333432674408,
        0.0,
        0.0,
        0.0
      ],
      "type": "VEC4"
    }
  ],
  "asset": {
    "extras": {
      "author": "Aeon (https://sketchfab.com/AeonArcana)",
      "license": "CC-BY-4.0 (http://creativecommons.org/licenses/by/4.0/)",
      "source": "https://sketchfab.com/3d-models/neco-arc-by-arcanaaeon-7e1d765c2c4a4cbb9109125578a3fced",
      "title": "Neco Arc by ArcanaAeon"
    },
    "generator": "Sketchfab-14.49.0",
    "version": "2.0"
  },
  "bufferViews": [
    {
      "buffer": 0,
      "byteLength": 71456,
      "byteStride": 8,
      "name": "shortBufferViews",
      "target": 34962
    },
    {
      "buffer": 0,
      "byteLength": 202608,
      "byteOffset": 71456,
      "name": "floatBufferViews",
      "target": 34963
    },
    {
      "buffer": 0,
      "byteLength": 71456,
      "byteOffset": 274064,
      "byteStride": 8,
      "name": "floatBufferViews",
      "target": 34962
    },
    {
      "buffer": 0,
      "byteLength": 214368,
      "byteOffset": 345520,
      "byteStride": 12,
      "name": "floatBufferViews",
      "target": 34962
    },
    {
      "buffer": 0,
      "byteLength": 142912,
      "byteOffset": 559888,
      "byteStride": 16,
      "name": "floatBufferViews",
      "target": 34962
    },
    {
      "buffer": 0,
      "byteLength": 1728,
      "byteOffset": 702800,
      "name": "floatBufferViews"
    }
  ],
  "buffers": [
    {
      "byteLength": 704528,
      "uri": "scene.bin"
    }
  ],
  "extensionsUsed": [
    "KHR_materials_unlit"
  ],
  "images": [
    {
      "uri": "textures/Material_baseColor.png"
    },
    {
      "uri": "textures/OUTLINE_baseColor.png"
    }
  ],
  "materials": [
    {
      "extensions": {
        "KHR_materials_unlit": {}
      },
      "name": "Material",
      "pbrMetallicRoughness": {
        "baseColorTexture": {
          "index": 0
        },
        "metallicFactor": 0.0
      }
    },
    {
      "extensions": {
        "KHR_materials_unlit": {}
      },
      "name": "OUTLINE",
      "pbrMetallicRoughness": {
        "baseColorTexture": {
          "index": 1
        },
        "metallicFactor": 0.0
      }
    }
  ],
  "meshes": [
    {
      "name": "Object_0",
      "primitives": [
        {
          "attributes": {
            "JOINTS_0": 13,
            "NORMAL": 1,
            "POSITION": 0,
            "TEXCOORD_0": 2,
            "WEIGHTS_0": 14
          },
          "indices": 3,
          "material": 0,
          "mode": 4
        }
      ]
    },
    {
      "name": "Object_1",
      "primitives": [
        {
          "attributes": {
            "JOINTS_0": 15,
            "NORMAL": 5,
            "POSITION": 4,
            "TEXCOORD_0": 6,
            "WEIGHTS_0": 16
          },
          "indices": 7,
          "material": 0,
          "mode": 4
        }
      ]
    },
    {
      "name": "Object_2",
      "primitives": [
        {
          "attributes": {
            "JOINTS_0": 17,
            "NORMAL": 9,
            "POSITION": 8,
            "TEXCOORD_0": 10,
            "WEIGHTS_0": 18
          },
          "indices": 11,
          "material": 1,
          "mode": 4
        }
      ]
    }
  ],
  "nodes": [
    {
      "children": [
        1
      ],
      "matrix": [
        1.0,
        0.0,
        0.0,
        0.0,
        0.0,
        2.220446049250313e-16,
        -1.0,
        0.0,
        0.0,
        1.0,
        2.220446049250313e-16,
        0.0,
        0.0,
        0.0,
        0.0,
        1.0
      ],
      "name": "Sketchfab_model"
    },
    {
      "children": [
        2
      ],
      "name": "root"
    },
    {
      "children": [
        3
      ],
      "matrix": [
        1.0,
        0.0,
        0.0,
        0.0,
        0.0,
        2.220446049250313e-16,
        1.0,
        0.0,
        0.0,
        -1.0,
        2.220446049250313e-16,
        0.0,
        0.0,
        0.0,
        0.0,
        1.0
      ],
      "name": "GLTF_SceneRootNode"
    },
    {
      "children": [
        4
      ],
      "name": "Armature_26"
    },
    {
      "children": [
        5,
        34,
        37,
        38,
        32,
        35
      ],
      "name": "GLTF_created_0"
    },
    {
      "children": [
        6
      ],
      "name": "GLTF_created_0_rootJoint"
    },
    {
      "children": [
        7
      ],
      "name": "root_25",
      "translation": [
        0.0,
        0.44168564677238464,
        0.0
      ]
    },
    {
      "children": [
        8,
        20,
        29
      ],
      "name": "controller_24",
      "rotation": [
        0.7071068286895752,
        -5.366708819565247e-07,
        -5.366708819565247e-07,
        0.7071068286895752
      ],
      "translation": [
        -3.9252729679581876e-16,
        2.7677857875823975,
        -0.13959629833698273
      ]
    },
    {
      "children": [
        9
      ],
      "name": "spinel_11",
      "rotation": [
        -0.7855930924415588,
        0.10475151240825653,
        -0.1326417326927185,
        0.5952115654945374
      ],
      "scale": [
        1.0,
        1.0000001192092896,
        1.0000001192092896
      ],
      "translation": [
        -3.6190950410130984e-13,
        1.1019713141990906e-08,
        -2.3816379268737364e-07
      ]
    },
    {
      "children": [
        10,
        12,
        16
      ],
      "name": "spineu_10",
      "rotation": [
        0.16843688488006592,
        -0.2206360101699829,
        -0.03316092863678932,
        0.9601297378540039
      ],
      "scale": [
        1.0000001192092896,
        0.9999998807907104,
        1.0
      ],
      "translation": [
        -1.2790461777819478e-14,
        0.882186770439148,
        -4.4550187539016406e-08
      ]
    },
    {
      "children": [
        11
      ],
      "name": "neck_1",
      "rotation": [
        0.02264738455414772,
        -1.1917872910771621e-07,
        -8.366575210416727e-10,
        0.9997435212135315
      ],
      "scale": [
        0.9999998211860657,
        0.9999998211860657,
        0.9999998807907104
      ],
      "translation": [
        -5.960464477539063e-08,
        0.7991526126861572,
        -4.656754981624545e-10
      ]
    },
    {
      "name": "head_0",
      "rotation": [
        -0.05762188509106636,
        -0.12881463766098022,
        -0.0009369226172566414,
        0.9899927377700806
      ],
      "scale": [
        0.9999999403953552,
        0.9999998211860657,
        0.9999999403953552
      ],
      "translation": [
        2.9802318834981634e-08,
        0.4288198947906494,
        9.440474180166802e-09
      ]
    },
    {
      "children": [
        13
      ],
      "name": "shoulder.l_5",
      "rotation": [
        0.22175021469593048,
        0.17627328634262085,
        0.6088176369667053,
        0.7410099506378174
      ],
      "scale": [
        1.0000001192092896,
        1.0000001192092896,
        1.0
      ],
      "translation": [
        -0.24312052130699158,
        0.4798405170440674,
        -0.008143912069499493
      ]
    },
    {
      "children": [
        14
      ],
      "name": "armu.l_4",
      "rotation": [
        -0.030387405306100845,
        -0.07701510936021805,
        0.2797379791736603,
        0.9564998745918274
      ],
      "scale": [
        1.0,
        1.0000001192092896,
        1.0000001192092896
      ],
      "translation": [
        4.4160591983199993e-07,
        0.40949249267578125,
        -1.0866507693663152e-07
      ]
    },
    {
      "children": [
        15
      ],
      "name": "arml.l_3",
      "rotation": [
        -0.1796087771654129,
        0.46852460503578186,
        0.5789514183998108,
        0.6426823735237122
      ],
      "scale": [
        1.0000001192092896,
        1.0000001192092896,
        1.0000001192092896
      ],
      "translation": [
        2.3624605205441185e-07,
        0.5713775157928467,
        -1.2589720199684962e-07
      ]
    },
    {
      "name": "hand.l_2",
      "rotation": [
        0.034499943256378174,
        -0.01566152460873127,
        -0.06252917647361755,
        0.9973236918449402
      ],
      "scale": [
        0.9999998807907104,
        1.0,
        1.0
      ],
      "translation": [
        1.1125702314984665e-07,
        0.9038037061691284,
        -1.3029165302214096e-07
      ]
    },
    {
      "children": [
        17
      ],
      "name": "shoulder.r_9",
      "rotation": [
        -0.004089780151844025,
        0.2364436388015747,
        -0.5904639363288879,
        0.7716411352157593
      ],
      "scale": [
        0.9999998807907104,
        0.9999998807907104,
        1.0
      ],
      "translation": [
        0.2431204617023468,
        0.4798409938812256,
        -0.008143969811499119
      ]
    },
    {
      "children": [
        18
      ],
      "name": "armu.r_8",
      "rotation": [
        0.06835029274225235,
        0.26079002022743225,
        -0.287668377161026,
        0.9190014600753784
      ],
      "scale": [
        1.0,
        1.0000001192092896,
        1.0000001192092896
      ],
      "translation": [
        2.3713597840924194e-07,
        0.4094924330711365,
        -5.061363594904833e-08
      ]
    },
    {
      "children": [
        19
      ],
      "name": "arml.r_7",
      "rotation": [
        -0.3238737881183624,
        0.19606231153011322,
        0.07752209156751633,
        0.9223099946975708
      ],
      "scale": [
        1.0000001192092896,
        1.0000001192092896,
        1.0000001192092896
      ],
      "translation": [
        -4.888974558525661e-07,
        0.5713775753974915,
        -3.602425735493853e-08
      ]
    },
    {
      "name": "hand.r_6",
      "rotation": [
        -0.25298675894737244,
        0.08706016838550568,
        0.10305952280759811,
        0.9580172300338745
      ],
      "scale": [
        1.0000001192092896,
        1.0,
        1.0
      ],
      "translation": [
        -1.7084984449411422e-07,
        0.9038037061691284,
        -2.495011983683071e-07
      ]
    },
    {
      "children": [
        21,
        25
      ],
      "name": "uhh_20",
      "rotation": [
        0.7347647547721863,
        1.1051264436900965e-07,
        -9.956161193258595e-07,
        0.6783220767974854
      ],
      "scale": [
        1.0,
        0.9999999403953552,
        0.9999999403953552
      ],
      "translation": [
        -1.8100709529866345e-14,
        2.970737789098621e-08,
        2.376982166651942e-09
      ]
    },
    {
      "children": [
        22
      ],
      "name": "legu.l_15",
      "rotation": [
        -0.034006088972091675,
        0.009192831814289093,
        0.16103602945804596,
        0.9863196611404419
      ],
      "scale": [
        0.9999999403953552,
        1.0,
        1.0000001192092896
      ],
      "translation": [
        -0.3710527718067169,
        0.3829880356788635,
        -0.03064376674592495
      ]
    },
    {
      "children": [
        23
      ],
      "name": "legl.l_14",
      "rotation": [
        -0.02674083039164543,
        -1.6500754540516027e-08,
        -0.005597969517111778,
        0.9996267557144165
      ],
      "scale": [
        1.0,
        0.9999998807907104,
        0.9999998807907104
      ],
      "translation": [
        -1.1839136249136573e-07,
        1.0485939979553223,
        -3.974110995841329e-08
      ]
    },
    {
      "children": [
        24
      ],
      "name": "feetu.l_13",
      "rotation": [
        0.333620548248291,
        -0.12782065570354462,
        -0.07597029209136963,
        0.9309069514274597
      ],
      "scale": [
        1.0,
        0.9999999403953552,
        1.0
      ],
      "translation": [
        5.337642505764961e-08,
        0.9948447942733765,
        -2.8812792152166367e-09
      ]
    },
    {
      "name": "feetl.l_12",
      "rotation": [
        0.3620544672012329,
        0.11794007569551468,
        -0.033554885536432266,
        0.9240567088127136
      ],
      "scale": [
        1.0,
        1.0,
        0.9999999403953552
      ],
      "translation": [
        1.5203724501589022e-07,
        0.6719441413879395,
        3.355389921466667e-08
      ]
    },
    {
      "children": [
        26
      ],
      "name": "legu.r_19",
      "rotation": [
        0.004350021947175264,
        0.260665625333786,
        -0.18930013477802277,
        0.9466784000396729
      ],
      "scale": [
        1.0,
        1.0,
        1.0000001192092896
      ],
      "translation": [
        0.37105265259742737,
        0.3829880356788635,
        -0.030644619837403297
      ]
    },
    {
      "children": [
        27
      ],
      "name": "legl.r_18",
      "rotation": [
        -0.02674083039164543,
        2.2643956043566504e-08,
        0.005597987677901983,
        0.9996267557144165
      ],
      "scale": [
        0.9999998807907104,
        0.9999998807907104,
        0.9999997615814209
      ],
      "translation": [
        -4.435884903841725e-08,
        1.0485938787460327,
        -1.897630674818629e-08
      ]
    },
    {
      "children": [
        28
      ],
      "name": "feetu.r_17",
      "rotation": [
        0.13832594454288483,
        0.32065337896347046,
        -0.061873871833086014,
        0.9349967837333679
      ],
      "translation": [
        -5.280720216660484e-08,
        0.9948447942733765,
        -6.290544263265474e-08
      ]
    },
    {
      "name": "feetl.r_16",
      "rotation": [
        0.561236560344696,
        0.09105274081230164,
        0.08533982187509537,
        0.8181931972503662
      ],
      "scale": [
        1.0,
        0.9999999403953552,
        1.0
      ],
      "translation": [
        -3.256668890116998e-08,
        0.6719442009925842,
        3.5758496608195856e-08
      ]
    },
    {
      "children": [
        30
      ],
      "name": "tail1_23",
      "rotation": [
        0.3937561810016632,
        0.8107462525367737,
        0.4330366849899292,
        0.011219417676329613
      ],
      "scale": [
        1.0,
        1.0000001192092896,
        1.0
      ],
      "translation": [
        5.092574610898737e-07,
        0.7648547887802124,
        0.3354935646057129
      ]
    },
    {
      "children": [
        31
      ],
      "name": "tail2_22",
      "rotation": [
        0.23757115006446838,
        -0.03258567675948143,
        0.10929964482784271,
        0.9646511077880859
      ],
      "scale": [
        1.0,
        1.0,
        1.0000001192092896
      ],
      "translation": [
        0.0,
        1.0751972198486328,
        0.0
      ]
    },
    {
      "name": "tail3_21",
      "rotation": [
        0.42981037497520447,
        -0.1274179369211197,
        0.07471273839473724,
        0.8907557129859924
      ],
      "scale": [
        0.9999998807907104,
        1.0,
        1.0
      ],
      "translation": [
        -1.1920928955078125e-07,
        0.8914324045181274,
        0.0
      ]
    },
    {
      "children": [
        33
      ],
      "name": "2d_27_correction"
    },
    {
      "name": "2d_27"
    },
    {
      "mesh": 0,
      "name": "Object_34",
      "skin": 0
    },
    {
      "children": [
        36
      ],
      "name": "line_28_correction"
    },
    {
      "name": "line_28"
    },
    {
      "mesh": 1,
      "name": "Object_37",
      "skin": 0
    },
    {
      "mesh": 2,
      "name": "Object_38",
      "skin": 0
    }
  ],
  "samplers": [
    {
      "magFilter": 9729,
      "minFilter": 9987,
      "wrapS": 10497,
      "wrapT": 10497
    }
  ],
  "scene": 0,
  "scenes": [
    {
      "name": "Sketchfab_Scene",
      "nodes": [
        0
      ]
    }
  ],
  "skins": [
    {
      "inverseBindMatrices": 12,
      "joints": [
        5,
        6,
        7,
        8,
        9,
        10,
        11,
        12,
        13,
        14,
        15,
        16,
        17,
        18,
        19,
        20,
        21,
        22,
        23,
        24,
        25,
        26,
        27,
        28,
        29,
        30,
        31
      ],
      "skeleton": 5
    }
  ],
  "textures": [
    {
      "sampler": 0,
      "source": 0
    },
    {
      "sampler": 0,
      "source": 1
    }
  ]
}
